<mxfile host="Electron" agent="Mozilla/5.0 (X11; Linux x86_64) AppleWebKit/537.36 (KHTML, like Gecko) draw.io/25.0.1 Chrome/128.0.6613.186 Electron/32.2.6 Safari/537.36" version="25.0.1">
  <diagram name="Страница — 1" id="YFOsDHLqYsKY9TCAfvfK">
    <mxGraphModel dx="1717" dy="677" grid="1" gridSize="10" guides="1" tooltips="1" connect="1" arrows="1" fold="1" page="1" pageScale="1" pageWidth="1169" pageHeight="827" math="0" shadow="0">
      <root>
        <mxCell id="0" />
        <mxCell id="1" parent="0" />
        <mxCell id="T0nBWX8SQkE_kbwMObD9-21" value="" style="rounded=0;whiteSpace=wrap;html=1;strokeColor=none;" vertex="1" parent="1">
          <mxGeometry x="20" y="160" width="1110" height="480" as="geometry" />
        </mxCell>
        <mxCell id="T0nBWX8SQkE_kbwMObD9-18" value="" style="rounded=1;whiteSpace=wrap;html=1;strokeColor=#66CC00;strokeWidth=4;" vertex="1" parent="1">
          <mxGeometry x="460" y="190" width="660.4" height="430" as="geometry" />
        </mxCell>
        <mxCell id="T0nBWX8SQkE_kbwMObD9-17" value="" style="rounded=1;whiteSpace=wrap;html=1;strokeWidth=4;strokeColor=#FF8000;" vertex="1" parent="1">
          <mxGeometry x="30" y="190" width="380" height="430" as="geometry" />
        </mxCell>
        <mxCell id="JsjlVQ6FnhoZAz8qgJWQ-30" style="edgeStyle=orthogonalEdgeStyle;rounded=1;orthogonalLoop=1;jettySize=auto;html=1;strokeWidth=3;endArrow=none;endFill=0;exitX=1;exitY=0.5;exitDx=0;exitDy=0;exitPerimeter=0;curved=0;" parent="1" edge="1" target="JsjlVQ6FnhoZAz8qgJWQ-29" source="JsjlVQ6FnhoZAz8qgJWQ-1">
          <mxGeometry relative="1" as="geometry">
            <mxPoint x="185.78000000000006" y="356.8942857142858" as="sourcePoint" />
            <mxPoint x="480" y="559.0649999999998" as="targetPoint" />
            <Array as="points">
              <mxPoint x="447" y="357" />
              <mxPoint x="530" y="357" />
              <mxPoint x="530" y="559" />
            </Array>
          </mxGeometry>
        </mxCell>
        <mxCell id="JsjlVQ6FnhoZAz8qgJWQ-31" style="edgeStyle=orthogonalEdgeStyle;rounded=1;orthogonalLoop=1;jettySize=auto;html=1;entryX=1;entryY=0.5;entryDx=0;entryDy=0;entryPerimeter=0;strokeWidth=3;endArrow=none;endFill=0;curved=0;" parent="1" source="JsjlVQ6FnhoZAz8qgJWQ-8" target="JsjlVQ6FnhoZAz8qgJWQ-29" edge="1">
          <mxGeometry relative="1" as="geometry">
            <Array as="points">
              <mxPoint x="1038" y="560" />
              <mxPoint x="739" y="560" />
            </Array>
          </mxGeometry>
        </mxCell>
        <mxCell id="JsjlVQ6FnhoZAz8qgJWQ-32" style="edgeStyle=orthogonalEdgeStyle;rounded=1;orthogonalLoop=1;jettySize=auto;html=1;entryX=0.94;entryY=0.01;entryDx=0;entryDy=0;entryPerimeter=0;strokeWidth=3;endArrow=none;endFill=0;curved=0;exitX=0.5;exitY=1;exitDx=0;exitDy=0;exitPerimeter=0;" parent="1" source="JsjlVQ6FnhoZAz8qgJWQ-3" target="JsjlVQ6FnhoZAz8qgJWQ-29" edge="1">
          <mxGeometry relative="1" as="geometry">
            <Array as="points">
              <mxPoint x="880" y="440" />
              <mxPoint x="880" y="480" />
              <mxPoint x="935" y="480" />
            </Array>
          </mxGeometry>
        </mxCell>
        <mxCell id="JsjlVQ6FnhoZAz8qgJWQ-33" style="edgeStyle=orthogonalEdgeStyle;rounded=1;orthogonalLoop=1;jettySize=auto;html=1;entryX=0.5;entryY=0.01;entryDx=0;entryDy=0;entryPerimeter=0;strokeWidth=3;endArrow=none;endFill=0;curved=0;" parent="1" source="JsjlVQ6FnhoZAz8qgJWQ-13" target="JsjlVQ6FnhoZAz8qgJWQ-29" edge="1">
          <mxGeometry relative="1" as="geometry">
            <Array as="points">
              <mxPoint x="739" y="480" />
              <mxPoint x="830" y="480" />
              <mxPoint x="830" y="540" />
            </Array>
          </mxGeometry>
        </mxCell>
        <mxCell id="JsjlVQ6FnhoZAz8qgJWQ-34" style="edgeStyle=orthogonalEdgeStyle;rounded=1;orthogonalLoop=1;jettySize=auto;html=1;entryX=0.07;entryY=0.01;entryDx=0;entryDy=0;entryPerimeter=0;strokeWidth=3;endArrow=none;endFill=0;curved=0;" parent="1" source="JsjlVQ6FnhoZAz8qgJWQ-14" target="JsjlVQ6FnhoZAz8qgJWQ-29" edge="1">
          <mxGeometry relative="1" as="geometry">
            <Array as="points">
              <mxPoint x="613" y="500" />
              <mxPoint x="719" y="500" />
            </Array>
          </mxGeometry>
        </mxCell>
        <mxCell id="JsjlVQ6FnhoZAz8qgJWQ-1" value="" style="sketch=0;aspect=fixed;pointerEvents=1;shadow=0;dashed=0;html=1;strokeColor=none;labelPosition=center;verticalLabelPosition=bottom;verticalAlign=top;align=center;fillColor=#00188D;shape=mxgraph.mscae.enterprise.server_generic" parent="1" vertex="1">
          <mxGeometry x="398" y="280.41" width="76.6" height="159.59" as="geometry" />
        </mxCell>
        <mxCell id="JsjlVQ6FnhoZAz8qgJWQ-2" value="" style="image;sketch=0;aspect=fixed;html=1;points=[];align=center;fontSize=12;image=img/lib/mscae/WebAppWordPress.svg;" parent="1" vertex="1">
          <mxGeometry x="430" y="400.41" width="62.32" height="63.59" as="geometry" />
        </mxCell>
        <mxCell id="JsjlVQ6FnhoZAz8qgJWQ-3" value="" style="sketch=0;aspect=fixed;pointerEvents=1;shadow=0;dashed=0;html=1;strokeColor=none;labelPosition=center;verticalLabelPosition=bottom;verticalAlign=top;align=center;fillColor=#00188D;shape=mxgraph.mscae.enterprise.server_generic" parent="1" vertex="1">
          <mxGeometry x="834.7" y="280.82000000000005" width="76.6" height="159.59" as="geometry" />
        </mxCell>
        <mxCell id="JsjlVQ6FnhoZAz8qgJWQ-8" value="" style="sketch=0;aspect=fixed;pointerEvents=1;shadow=0;dashed=0;html=1;strokeColor=none;labelPosition=center;verticalLabelPosition=bottom;verticalAlign=top;align=center;fillColor=#00188D;shape=mxgraph.mscae.enterprise.server_generic" parent="1" vertex="1">
          <mxGeometry x="1000" y="280.41" width="76.8" height="160" as="geometry" />
        </mxCell>
        <mxCell id="JsjlVQ6FnhoZAz8qgJWQ-13" value="" style="sketch=0;aspect=fixed;pointerEvents=1;shadow=0;dashed=0;html=1;strokeColor=none;labelPosition=center;verticalLabelPosition=bottom;verticalAlign=top;align=center;fillColor=#00188D;shape=mxgraph.mscae.enterprise.server_generic" parent="1" vertex="1">
          <mxGeometry x="701" y="280.82000000000005" width="76.6" height="159.59" as="geometry" />
        </mxCell>
        <mxCell id="JsjlVQ6FnhoZAz8qgJWQ-14" value="" style="sketch=0;aspect=fixed;pointerEvents=1;shadow=0;dashed=0;html=1;strokeColor=none;labelPosition=center;verticalLabelPosition=bottom;verticalAlign=top;align=center;fillColor=#00188D;shape=mxgraph.mscae.enterprise.server_generic" parent="1" vertex="1">
          <mxGeometry x="575" y="280.41" width="76.6" height="159.59" as="geometry" />
        </mxCell>
        <mxCell id="JsjlVQ6FnhoZAz8qgJWQ-12" value="" style="image;sketch=0;aspect=fixed;html=1;points=[];align=center;fontSize=12;image=img/lib/mscae/aspect=fixed;html=1;perimeter=none;align=center;shadow=0;dashed=0;fontSize=12;image=img/lib/mscae/Azure_Database_for_MariaDB_servers.svg;imageBorder=none;" parent="1" vertex="1">
          <mxGeometry x="624.6" y="390.41" width="53.2" height="70" as="geometry" />
        </mxCell>
        <mxCell id="JsjlVQ6FnhoZAz8qgJWQ-18" value="" style="image;sketch=0;aspect=fixed;html=1;points=[];align=center;fontSize=12;image=img/lib/mscae/aspect=fixed;html=1;perimeter=none;align=center;shadow=0;dashed=0;fontSize=12;image=img/lib/mscae/Azure_Database_for_MariaDB_servers.svg;imageBorder=none;" parent="1" vertex="1">
          <mxGeometry x="751.8" y="390.41" width="53.2" height="70" as="geometry" />
        </mxCell>
        <mxCell id="JsjlVQ6FnhoZAz8qgJWQ-25" value="" style="image;sketch=0;aspect=fixed;html=1;points=[];align=center;fontSize=12;image=img/lib/mscae/Network_watcher.svg;" parent="1" vertex="1">
          <mxGeometry x="863.48" y="394" width="70" height="70" as="geometry" />
        </mxCell>
        <mxCell id="JsjlVQ6FnhoZAz8qgJWQ-26" value="" style="shape=image;aspect=fixed;image=data:image/svg+xml,PHN2ZyB4bWxucz0iaHR0cDovL3d3dy53My5vcmcvMjAwMC9zdmciIHhtbDpzcGFjZT0icHJlc2VydmUiIHZpZXdCb3g9IjAgMCA1MTIgNTEyIj48cGF0aCBkPSJNNTEyIDI1NmMwIDE0MS40LTExNC42IDI1Ni0yNTYgMjU2UzAgMzk3LjQgMCAyNTYgMTE0LjYgMCAyNTYgMHMyNTYgMTE0LjYgMjU2IDI1NiIgc3R5bGU9ImZpbGw6IzFhMTkxOCIvPjxwYXRoIGQ9Im0yNjAuMyAxNTYuNCA2Ni4yIDE2My41LTEwMC4xLTc4Ljh6TTM3OCAzNTcuNiAyNzYuMSAxMTIuM2MtMi45LTcuMS04LjctMTAuOC0xNS44LTEwLjhzLTEzLjMgMy43LTE2LjIgMTAuOGwtMTExLjggMjY5aDM4LjNsNDQuMy0xMTAuOUwzNDcgMzc3LjFjNS4zIDQuMyA5LjEgNi4yIDE0LjEgNi4yIDEwIDAgMTguNy03LjUgMTguNy0xOC4zLS4xLTEuNy0uNy00LjQtMS44LTcuNCIgc3R5bGU9ImZpbGw6I2ZmZiIvPjwvc3ZnPg==;" parent="1" vertex="1">
          <mxGeometry x="1050" y="390.41" width="66" height="66" as="geometry" />
        </mxCell>
        <mxCell id="JsjlVQ6FnhoZAz8qgJWQ-29" value="&lt;font style=&quot;font-size: 18px;&quot;&gt;192.168.56.0/24&lt;/font&gt;" style="sketch=0;aspect=fixed;pointerEvents=1;shadow=0;dashed=0;html=1;strokeColor=none;labelPosition=center;verticalLabelPosition=bottom;verticalAlign=top;align=center;fillColor=#00188D;shape=mxgraph.mscae.general.tunnel" parent="1" vertex="1">
          <mxGeometry x="701.24" y="540" width="248.76" height="44.77" as="geometry" />
        </mxCell>
        <mxCell id="JsjlVQ6FnhoZAz8qgJWQ-28" value="" style="sketch=0;aspect=fixed;pointerEvents=1;shadow=0;dashed=0;html=1;strokeColor=none;labelPosition=center;verticalLabelPosition=bottom;verticalAlign=top;align=center;fillColor=#FF8000;shape=mxgraph.mscae.enterprise.firewall" parent="1" vertex="1">
          <mxGeometry x="500.8" y="436" width="61.36" height="54" as="geometry" />
        </mxCell>
        <mxCell id="JsjlVQ6FnhoZAz8qgJWQ-35" value="db-2-srv" style="text;strokeColor=none;align=center;fillColor=none;html=1;verticalAlign=middle;whiteSpace=wrap;rounded=0;fontStyle=1;fontColor=#FFFFFF;fontSize=14;" parent="1" vertex="1">
          <mxGeometry x="709" y="340" width="60" height="30" as="geometry" />
        </mxCell>
        <mxCell id="JsjlVQ6FnhoZAz8qgJWQ-36" value="db-1-srv" style="text;strokeColor=none;align=center;fillColor=none;html=1;verticalAlign=middle;whiteSpace=wrap;rounded=0;fontStyle=1;fontColor=#FFFFFF;fontSize=14;" parent="1" vertex="1">
          <mxGeometry x="583.3" y="341" width="60" height="30" as="geometry" />
        </mxCell>
        <mxCell id="JsjlVQ6FnhoZAz8qgJWQ-37" value="mon-srv" style="text;strokeColor=none;align=center;fillColor=none;html=1;verticalAlign=middle;whiteSpace=wrap;rounded=0;fontStyle=1;fontColor=#FFFFFF;fontSize=14;" parent="1" vertex="1">
          <mxGeometry x="843" y="340" width="60" height="30" as="geometry" />
        </mxCell>
        <mxCell id="JsjlVQ6FnhoZAz8qgJWQ-38" value="web-srv" style="text;strokeColor=none;align=center;fillColor=none;html=1;verticalAlign=middle;whiteSpace=wrap;rounded=0;fontStyle=1;fontColor=#FFFFFF;fontSize=14;" parent="1" vertex="1">
          <mxGeometry x="406.3" y="340" width="60" height="30" as="geometry" />
        </mxCell>
        <mxCell id="T0nBWX8SQkE_kbwMObD9-10" value="master-srv" style="text;strokeColor=none;align=center;fillColor=none;html=1;verticalAlign=middle;whiteSpace=wrap;rounded=0;fontStyle=1;fontColor=#FFFFFF;fontSize=14;" vertex="1" parent="1">
          <mxGeometry x="1008.4" y="340" width="60" height="30" as="geometry" />
        </mxCell>
        <mxCell id="T0nBWX8SQkE_kbwMObD9-11" value="&lt;font style=&quot;font-size: 18px;&quot;&gt;192.168.57.0/24&lt;/font&gt;" style="sketch=0;aspect=fixed;pointerEvents=1;shadow=0;dashed=0;html=1;strokeColor=none;labelPosition=center;verticalLabelPosition=bottom;verticalAlign=top;align=center;fillColor=#00188D;shape=mxgraph.mscae.general.tunnel" vertex="1" parent="1">
          <mxGeometry x="100" y="540" width="208.76" height="37.57" as="geometry" />
        </mxCell>
        <mxCell id="T0nBWX8SQkE_kbwMObD9-12" style="edgeStyle=orthogonalEdgeStyle;rounded=1;orthogonalLoop=1;jettySize=auto;html=1;entryX=0;entryY=0.5;entryDx=0;entryDy=0;entryPerimeter=0;strokeWidth=3;curved=0;endSize=6;endArrow=none;endFill=0;" edge="1" parent="1" source="T0nBWX8SQkE_kbwMObD9-11" target="JsjlVQ6FnhoZAz8qgJWQ-1">
          <mxGeometry relative="1" as="geometry" />
        </mxCell>
        <mxCell id="T0nBWX8SQkE_kbwMObD9-13" value="" style="sketch=0;aspect=fixed;pointerEvents=1;shadow=0;dashed=0;html=1;strokeColor=none;labelPosition=center;verticalLabelPosition=bottom;verticalAlign=top;align=center;fillColor=#FF8000;shape=mxgraph.mscae.enterprise.firewall" vertex="1" parent="1">
          <mxGeometry x="320" y="436" width="61.36" height="54" as="geometry" />
        </mxCell>
        <mxCell id="T0nBWX8SQkE_kbwMObD9-14" value="{http/https}" style="text;strokeColor=none;align=center;fillColor=none;html=1;verticalAlign=middle;whiteSpace=wrap;rounded=0;fontStyle=1" vertex="1" parent="1">
          <mxGeometry x="321.36" y="311" width="60" height="30" as="geometry" />
        </mxCell>
        <mxCell id="T0nBWX8SQkE_kbwMObD9-15" value="{http/https&lt;div&gt;/ssh/tcp:9100}&lt;/div&gt;" style="text;strokeColor=none;align=center;fillColor=none;html=1;verticalAlign=middle;whiteSpace=wrap;rounded=0;fontStyle=1" vertex="1" parent="1">
          <mxGeometry x="492.32" y="310" width="60" height="30" as="geometry" />
        </mxCell>
        <mxCell id="T0nBWX8SQkE_kbwMObD9-19" value="DMZ" style="text;strokeColor=default;align=center;fillColor=default;html=1;verticalAlign=middle;whiteSpace=wrap;rounded=1;fontStyle=1;fontSize=17;arcSize=50;" vertex="1" parent="1">
          <mxGeometry x="290" y="170" width="71.24" height="50" as="geometry" />
        </mxCell>
        <mxCell id="T0nBWX8SQkE_kbwMObD9-20" value="Internal" style="text;strokeColor=default;align=center;fillColor=default;html=1;verticalAlign=middle;whiteSpace=wrap;rounded=1;fontStyle=1;fontSize=17;arcSize=50;" vertex="1" parent="1">
          <mxGeometry x="606.82" y="170" width="88.76" height="50" as="geometry" />
        </mxCell>
        <mxCell id="T0nBWX8SQkE_kbwMObD9-22" value="" style="group" vertex="1" connectable="0" parent="1">
          <mxGeometry x="787.7" y="200" width="163.29999999999995" height="71" as="geometry" />
        </mxCell>
        <mxCell id="JsjlVQ6FnhoZAz8qgJWQ-7" value="" style="image;sketch=0;aspect=fixed;html=1;points=[];align=center;fontSize=12;image=img/lib/mscae/Docker.svg;" parent="T0nBWX8SQkE_kbwMObD9-22" vertex="1">
          <mxGeometry x="113.29999999999995" y="30" width="50" height="41" as="geometry" />
        </mxCell>
        <mxCell id="JsjlVQ6FnhoZAz8qgJWQ-10" value="" style="image;sketch=0;aspect=fixed;html=1;points=[];align=center;fontSize=12;image=img/lib/mscae/Docker.svg;" parent="T0nBWX8SQkE_kbwMObD9-22" vertex="1">
          <mxGeometry x="58.299999999999955" y="30" width="50" height="41" as="geometry" />
        </mxCell>
        <mxCell id="JsjlVQ6FnhoZAz8qgJWQ-11" value="" style="image;sketch=0;aspect=fixed;html=1;points=[];align=center;fontSize=12;image=img/lib/mscae/Docker.svg;" parent="T0nBWX8SQkE_kbwMObD9-22" vertex="1">
          <mxGeometry y="30" width="48.78" height="40" as="geometry" />
        </mxCell>
        <mxCell id="T0nBWX8SQkE_kbwMObD9-7" value="" style="group" vertex="1" connectable="0" parent="T0nBWX8SQkE_kbwMObD9-22">
          <mxGeometry x="122.29999999999995" width="40" height="40" as="geometry" />
        </mxCell>
        <mxCell id="T0nBWX8SQkE_kbwMObD9-5" value="" style="ellipse;whiteSpace=wrap;html=1;strokeColor=#FF2008;" vertex="1" parent="T0nBWX8SQkE_kbwMObD9-7">
          <mxGeometry width="40" height="40" as="geometry" />
        </mxCell>
        <mxCell id="T0nBWX8SQkE_kbwMObD9-3" value="" style="shape=image;verticalLabelPosition=bottom;labelBackgroundColor=default;verticalAlign=top;aspect=fixed;imageAspect=0;image=data:image/svg+xml,PHN2ZyB4bWxuczp4bGluaz0iaHR0cDovL3d3dy53My5vcmcvMTk5OS94bGluayIgeG1sbnM9Imh0dHA6Ly93d3cudzMub3JnLzIwMDAvc3ZnIiB4bWw6c3BhY2U9InByZXNlcnZlIiBzdHlsZT0iZW5hYmxlLWJhY2tncm91bmQ6bmV3IC0xODEuMSAtNjcgMjY0LjIgMzE4OyIgdmlld0JveD0iLTE4MS4xIC02NyAyNjQuMiAzMTgiIGhlaWdodD0iMzE4cHgiIHdpZHRoPSIyNjQuMnB4IiB5PSIwcHgiIHg9IjBweCIgaWQ9IkxheWVyXzEiIHZlcnNpb249IjEuMSI+JiN4YTs8c3R5bGUgdHlwZT0idGV4dC9jc3MiPiYjeGE7CS5zdDB7ZmlsbDp1cmwoI1NWR0lEXzFfKTt9JiN4YTsJLnN0MXtmaWxsOnVybCgjU1ZHSURfMl8pO30mI3hhOwkuc3Qye2ZpbGw6dXJsKCNTVkdJRF8zXyk7fSYjeGE7CS5zdDN7ZmlsbDp1cmwoI1NWR0lEXzRfKTt9JiN4YTsJLnN0NHtmaWxsOnVybCgjU1ZHSURfNV8pO30mI3hhOwkuc3Q1e2ZpbGw6dXJsKCNTVkdJRF82Xyk7fSYjeGE7CS5zdDZ7ZmlsbDp1cmwoI1NWR0lEXzdfKTt9JiN4YTsJLnN0N3tmaWxsOnVybCgjU1ZHSURfOF8pO30mI3hhOwkuc3Q4e2ZpbGw6dXJsKCNTVkdJRF85Xyk7fSYjeGE7CS5zdDl7ZmlsbDp1cmwoI1NWR0lEXzEwXyk7fSYjeGE7CS5zdDEwe2ZpbGw6dXJsKCNTVkdJRF8xMV8pO30mI3hhOwkuc3QxMXtmaWxsOnVybCgjU1ZHSURfMTJfKTt9JiN4YTsJLnN0MTJ7ZmlsbDp1cmwoI1NWR0lEXzEzXyk7fSYjeGE7CS5zdDEze2ZpbGw6dXJsKCNTVkdJRF8xNF8pO30mI3hhOwkuc3QxNHtmaWxsOnVybCgjU1ZHSURfMTVfKTt9JiN4YTs8L3N0eWxlPiYjeGE7PGc+JiN4YTsJJiN4YTsJCTxsaW5lYXJHcmFkaWVudCBncmFkaWVudFRyYW5zZm9ybT0ibWF0cml4KDAuOTgwNSAtMC4xOTY0IDAuMTk2NCAwLjk4MDUgLTU2Ny41MzAyIC01MDkuMDkwNikiIHkyPSI1NDcuNDQzNCIgeDI9IjM0Mi42ODA0IiB5MT0iODk3LjMwNTgiIHgxPSIzNDIuNjgwNCIgZ3JhZGllbnRVbml0cz0idXNlclNwYWNlT25Vc2UiIGlkPSJTVkdJRF8xXyI+JiN4YTsJCTxzdG9wIHN0eWxlPSJzdG9wLWNvbG9yOiNGOUVDMUMiIG9mZnNldD0iMCIvPiYjeGE7CQk8c3RvcCBzdHlsZT0ic3RvcC1jb2xvcjojRjA1QTJCIiBvZmZzZXQ9IjEiLz4mI3hhOwk8L2xpbmVhckdyYWRpZW50PiYjeGE7CTxwb2x5Z29uIHBvaW50cz0iLTEyNy4zLC01OC4yIC0xMjcuNSwtNTkuMSAtMTI4LjMsLTU4LjkiIGNsYXNzPSJzdDAiLz4mI3hhOwkmI3hhOwkJPGxpbmVhckdyYWRpZW50IGdyYWRpZW50VHJhbnNmb3JtPSJtYXRyaXgoMC45ODA1IC0wLjE5NjQgMC4xOTY0IDAuOTgwNSAtNTY3LjUzMDIgLTUwOS4wOTA2KSIgeTI9IjUzNy40NzcyIiB4Mj0iMjk1LjgwNDQiIHkxPSI4ODcuMzM5NyIgeDE9IjI5NS44MDQ0IiBncmFkaWVudFVuaXRzPSJ1c2VyU3BhY2VPblVzZSIgaWQ9IlNWR0lEXzJfIj4mI3hhOwkJPHN0b3Agc3R5bGU9InN0b3AtY29sb3I6I0Y5RUMxQyIgb2Zmc2V0PSIwIi8+JiN4YTsJCTxzdG9wIHN0eWxlPSJzdG9wLWNvbG9yOiNGMDVBMkIiIG9mZnNldD0iMSIvPiYjeGE7CTwvbGluZWFyR3JhZGllbnQ+JiN4YTsJPHBvbHlnb24gcG9pbnRzPSItMTA4LjMsMjE5LjMgLTEzMC43LDIyMy44IC0xMjYuMiwyNDYuMyAtMTAzLjgsMjQxLjgiIGNsYXNzPSJzdDEiLz4mI3hhOwkmI3hhOwkJPGxpbmVhckdyYWRpZW50IGdyYWRpZW50VHJhbnNmb3JtPSJtYXRyaXgoMC45ODA1IC0wLjE5NjQgMC4xOTY0IDAuOTgwNSAtNTY3LjUzMDIgLTUwOS4wOTA2KSIgeTI9IjUzNy40NzcyIiB4Mj0iNDQyLjQzNjMiIHkxPSI4ODcuMzM5NyIgeDE9IjQ0Mi40MzYzIiBncmFkaWVudFVuaXRzPSJ1c2VyU3BhY2VPblVzZSIgaWQ9IlNWR0lEXzNfIj4mI3hhOwkJPHN0b3Agc3R5bGU9InN0b3AtY29sb3I6I0Y5RUMxQyIgb2Zmc2V0PSIwIi8+JiN4YTsJCTxzdG9wIHN0eWxlPSJzdG9wLWNvbG9yOiNGMDVBMkIiIG9mZnNldD0iMSIvPiYjeGE7CTwvbGluZWFyR3JhZGllbnQ+JiN4YTsJPHBvbHlnb24gcG9pbnRzPSItMjcuOCwxOTAgNzEuMywxNzAuMSA2Ni44LDE0Ny43IC0zMi4zLDE2Ny41IiBjbGFzcz0ic3QyIi8+JiN4YTsJJiN4YTsJCTxsaW5lYXJHcmFkaWVudCBncmFkaWVudFRyYW5zZm9ybT0ibWF0cml4KDAuOTgwNSAtMC4xOTY0IDAuMTk2NCAwLjk4MDUgLTU2Ny41MzAyIC01MDkuMDkwNikiIHkyPSI1MzcuNDc3MiIgeDI9IjM2Ny41MDU2IiB5MT0iODg3LjMzOTciIHgxPSIzNjcuNTA1NiIgZ3JhZGllbnRVbml0cz0idXNlclNwYWNlT25Vc2UiIGlkPSJTVkdJRF80XyI+JiN4YTsJCTxzdG9wIHN0eWxlPSJzdG9wLWNvbG9yOiNGOUVDMUMiIG9mZnNldD0iMCIvPiYjeGE7CQk8c3RvcCBzdHlsZT0ic3RvcC1jb2xvcjojRjA1QTJCIiBvZmZzZXQ9IjEiLz4mI3hhOwk8L2xpbmVhckdyYWRpZW50PiYjeGE7CTxwb2x5Z29uIHBvaW50cz0iLTY3LjUsMTc0LjYgLTYzLDE5NyAtNDAuNSwxOTIuNSAtNDUsMTcwLjEiIGNsYXNzPSJzdDMiLz4mI3hhOwkmI3hhOwkJPGxpbmVhckdyYWRpZW50IGdyYWRpZW50VHJhbnNmb3JtPSJtYXRyaXgoMC45ODA1IC0wLjE5NjQgMC4xOTY0IDAuOTgwNSAtNTY3LjUzMDIgLTUwOS4wOTA2KSIgeTI9IjUzNy40NzcyIiB4Mj0iMzMxLjY1NDkiIHkxPSI4ODcuMzM5NyIgeDE9IjMzMS42NTQ5IiBncmFkaWVudFVuaXRzPSJ1c2VyU3BhY2VPblVzZSIgaWQ9IlNWR0lEXzVfIj4mI3hhOwkJPHN0b3Agc3R5bGU9InN0b3AtY29sb3I6I0Y5RUMxQyIgb2Zmc2V0PSIwIi8+JiN4YTsJCTxzdG9wIHN0eWxlPSJzdG9wLWNvbG9yOiNGMDVBMkIiIG9mZnNldD0iMSIvPiYjeGE7CTwvbGluZWFyR3JhZGllbnQ+JiN4YTsJPHBvbHlnb24gcG9pbnRzPSItNjguNiwyMzQuNyAtNzMuMSwyMTIuMyAtOTUuNiwyMTYuOCAtOTEuMSwyMzkuMiIgY2xhc3M9InN0NCIvPiYjeGE7CSYjeGE7CQk8bGluZWFyR3JhZGllbnQgZ3JhZGllbnRUcmFuc2Zvcm09Im1hdHJpeCgwLjk4MDUgLTAuMTk2NCAwLjE5NjQgMC45ODA1IC01NjcuNTMwMiAtNTA5LjA5MDYpIiB5Mj0iNTM3LjQ3NzIiIHgyPSIyOTUuODA0NCIgeTE9Ijg4Ny4zMzk3IiB4MT0iMjk1LjgwNDQiIGdyYWRpZW50VW5pdHM9InVzZXJTcGFjZU9uVXNlIiBpZD0iU1ZHSURfNl8iPiYjeGE7CQk8c3RvcCBzdHlsZT0ic3RvcC1jb2xvcjojRjlFQzFDIiBvZmZzZXQ9IjAiLz4mI3hhOwkJPHN0b3Agc3R5bGU9InN0b3AtY29sb3I6I0YwNUEyQiIgb2Zmc2V0PSIxIi8+JiN4YTsJPC9saW5lYXJHcmFkaWVudD4mI3hhOwk8cG9seWdvbiBwb2ludHM9Ii0xMzMuMywyMTEuMSAtMTEwLjgsMjA2LjYgLTExNS4zLDE4NC4yIC0xMzcuOCwxODguNyIgY2xhc3M9InN0NSIvPiYjeGE7CSYjeGE7CQk8bGluZWFyR3JhZGllbnQgZ3JhZGllbnRUcmFuc2Zvcm09Im1hdHJpeCgwLjk4MDUgLTAuMTk2NCAwLjE5NjQgMC45ODA1IC01NjcuNTMwMiAtNTA5LjA5MDYpIiB5Mj0iNTM3LjQ3NzIiIHgyPSI0NDIuNDM2MyIgeTE9Ijg4Ny4zMzk3IiB4MT0iNDQyLjQzNjMiIGdyYWRpZW50VW5pdHM9InVzZXJTcGFjZU9uVXNlIiBpZD0iU1ZHSURfN18iPiYjeGE7CQk8c3RvcCBzdHlsZT0ic3RvcC1jb2xvcjojRjlFQzFDIiBvZmZzZXQ9IjAiLz4mI3hhOwkJPHN0b3Agc3R5bGU9InN0b3AtY29sb3I6I0YwNUEyQiIgb2Zmc2V0PSIxIi8+JiN4YTsJPC9saW5lYXJHcmFkaWVudD4mI3hhOwk8cG9seWdvbiBwb2ludHM9IjczLjgsMTgyLjggLTI1LjMsMjAyLjcgLTIwLjgsMjI1LjEgNzguMywyMDUuMyIgY2xhc3M9InN0NiIvPiYjeGE7CSYjeGE7CQk8bGluZWFyR3JhZGllbnQgZ3JhZGllbnRUcmFuc2Zvcm09Im1hdHJpeCgwLjk4MDUgLTAuMTk2NCAwLjE5NjQgMC45ODA1IC01NjcuNTMwMiAtNTA5LjA5MDYpIiB5Mj0iNTM3LjQ3NzIiIHgyPSIzNjcuNTA1NiIgeTE9Ijg4Ny4zMzk3IiB4MT0iMzY3LjUwNTYiIGdyYWRpZW50VW5pdHM9InVzZXJTcGFjZU9uVXNlIiBpZD0iU1ZHSURfOF8iPiYjeGE7CQk8c3RvcCBzdHlsZT0ic3RvcC1jb2xvcjojRjlFQzFDIiBvZmZzZXQ9IjAiLz4mI3hhOwkJPHN0b3Agc3R5bGU9InN0b3AtY29sb3I6I0YwNUEyQiIgb2Zmc2V0PSIxIi8+JiN4YTsJPC9saW5lYXJHcmFkaWVudD4mI3hhOwk8cG9seWdvbiBwb2ludHM9Ii02MC40LDIwOS43IC01NS45LDIzMi4yIC0zMy41LDIyNy43IC0zOCwyMDUuMiIgY2xhc3M9InN0NyIvPiYjeGE7CSYjeGE7CQk8bGluZWFyR3JhZGllbnQgZ3JhZGllbnRUcmFuc2Zvcm09Im1hdHJpeCgwLjk4MDUgLTAuMTk2NCAwLjE5NjQgMC45ODA1IC01NjcuNTMwMiAtNTA5LjA5MDYpIiB5Mj0iNTM3LjQ3NzIiIHgyPSIzMzEuNjU0OSIgeTE9Ijg4Ny4zMzk3IiB4MT0iMzMxLjY1NDkiIGdyYWRpZW50VW5pdHM9InVzZXJTcGFjZU9uVXNlIiBpZD0iU1ZHSURfOV8iPiYjeGE7CQk8c3RvcCBzdHlsZT0ic3RvcC1jb2xvcjojRjlFQzFDIiBvZmZzZXQ9IjAiLz4mI3hhOwkJPHN0b3Agc3R5bGU9InN0b3AtY29sb3I6I0YwNUEyQiIgb2Zmc2V0PSIxIi8+JiN4YTsJPC9saW5lYXJHcmFkaWVudD4mI3hhOwk8cG9seWdvbiBwb2ludHM9Ii05OC4xLDIwNC4xIC03NS43LDE5OS42IC04MC4yLDE3Ny4xIC0xMDIuNiwxODEuNiIgY2xhc3M9InN0OCIvPiYjeGE7CSYjeGE7CQk8bGluZWFyR3JhZGllbnQgZ3JhZGllbnRUcmFuc2Zvcm09Im1hdHJpeCgwLjk4MDUgLTAuMTk2NCAwLjE5NjQgMC45ODA1IC01NjcuNTMwMiAtNTA5LjA5MDYpIiB5Mj0iNTQ4LjcyOTYiIHgyPSIyODkuMTkwOSIgeTE9Ijg4MC41NDQzIiB4MT0iMjg5LjE5MDkiIGdyYWRpZW50VW5pdHM9InVzZXJTcGFjZU9uVXNlIiBpZD0iU1ZHSURfMTBfIj4mI3hhOwkJPHN0b3Agc3R5bGU9InN0b3AtY29sb3I6I0Y5RUMxQyIgb2Zmc2V0PSIwIi8+JiN4YTsJCTxzdG9wIHN0eWxlPSJzdG9wLWNvbG9yOiNGMDVBMkIiIG9mZnNldD0iMSIvPiYjeGE7CTwvbGluZWFyR3JhZGllbnQ+JiN4YTsJPHBvbHlnb24gcG9pbnRzPSItMTQwLjMsMTc2IC0xMzAuOCwxNzQuMSAtMTY2LjgsLTUuNiAtMTc2LjMsLTMuNyIgY2xhc3M9InN0OSIvPiYjeGE7CSYjeGE7CQk8bGluZWFyR3JhZGllbnQgZ3JhZGllbnRUcmFuc2Zvcm09Im1hdHJpeCgwLjk4MDUgLTAuMTk2NCAwLjE5NjQgMC45ODA1IC01NjcuNTMwMiAtNTA5LjA5MDYpIiB5Mj0iNTMzLjQ5MjIiIHgyPSIzMDIuNDg3MiIgeTE9Ijg4OS43NDYzIiB4MT0iMzAyLjQ4NzIiIGdyYWRpZW50VW5pdHM9InVzZXJTcGFjZU9uVXNlIiBpZD0iU1ZHSURfMTFfIj4mI3hhOwkJPHN0b3Agc3R5bGU9InN0b3AtY29sb3I6I0Y5RUMxQyIgb2Zmc2V0PSIwIi8+JiN4YTsJCTxzdG9wIHN0eWxlPSJzdG9wLWNvbG9yOiNGMDVBMkIiIG9mZnNldD0iMSIvPiYjeGE7CTwvbGluZWFyR3JhZGllbnQ+JiN4YTsJPHBvbHlnb24gcG9pbnRzPSItMTI3LjMsMTczLjQgLTExNy44LDE3MS41IC0xNTYuNCwtMjEuNCAtMTY1LjksLTE5LjUiIGNsYXNzPSJzdDEwIi8+JiN4YTsJJiN4YTsJCTxsaW5lYXJHcmFkaWVudCBncmFkaWVudFRyYW5zZm9ybT0ibWF0cml4KDAuOTgwNSAtMC4xOTY0IDAuMTk2NCAwLjk4MDUgLTU2Ny41MzAyIC01MDkuMDkwNikiIHkyPSI1MDEuOTE3OCIgeDI9IjMyNS4xODg5IiB5MT0iOTA4LjgxNDUiIHgxPSIzMjUuMTg4OSIgZ3JhZGllbnRVbml0cz0idXNlclNwYWNlT25Vc2UiIGlkPSJTVkdJRF8xMl8iPiYjeGE7CQk8c3RvcCBzdHlsZT0ic3RvcC1jb2xvcjojRjlFQzFDIiBvZmZzZXQ9IjAiLz4mI3hhOwkJPHN0b3Agc3R5bGU9InN0b3AtY29sb3I6I0YwNUEyQiIgb2Zmc2V0PSIxIi8+JiN4YTsJPC9saW5lYXJHcmFkaWVudD4mI3hhOwk8cG9seWdvbiBwb2ludHM9Ii0xMDUsMTY4LjkgLTk1LjUsMTY3IC0xMzkuNywtNTMuMyAtMTQ5LjIsLTUxLjQiIGNsYXNzPSJzdDExIi8+JiN4YTsJJiN4YTsJCTxsaW5lYXJHcmFkaWVudCBncmFkaWVudFRyYW5zZm9ybT0ibWF0cml4KDAuOTgwNSAtMC4xOTY0IDAuMTk2NCAwLjk4MDUgLTU2Ny41MzAyIC01MDkuMDkwNikiIHkyPSI1MjIuNzE4MSIgeDI9IjMzOC40ODUyIiB5MT0iODk2LjI1MjkiIHgxPSIzMzguNDg1MiIgZ3JhZGllbnRVbml0cz0idXNlclNwYWNlT25Vc2UiIGlkPSJTVkdJRF8xM18iPiYjeGE7CQk8c3RvcCBzdHlsZT0ic3RvcC1jb2xvcjojRjlFQzFDIiBvZmZzZXQ9IjAiLz4mI3hhOwkJPHN0b3Agc3R5bGU9InN0b3AtY29sb3I6I0YwNUEyQiIgb2Zmc2V0PSIxIi8+JiN4YTsJPC9saW5lYXJHcmFkaWVudD4mI3hhOwk8cG9seWdvbiBwb2ludHM9Ii05MiwxNjYuMyAtODIuNSwxNjQuNCAtMTIzLC0zNy45IC0xMzIuNSwtMzYiIGNsYXNzPSJzdDEyIi8+JiN4YTsJJiN4YTsJCTxsaW5lYXJHcmFkaWVudCBncmFkaWVudFRyYW5zZm9ybT0ibWF0cml4KDAuOTgwNSAtMC4xOTY0IDAuMTk2NCAwLjk4MDUgLTU2Ny41MzAyIC01MDkuMDkwNikiIHkyPSI1NjQuODgwOCIgeDI9IjM2MC44OTg4IiB5MT0iODcwLjc5MDMiIHgxPSIzNjAuODk4OCIgZ3JhZGllbnRVbml0cz0idXNlclNwYWNlT25Vc2UiIGlkPSJTVkdJRF8xNF8iPiYjeGE7CQk8c3RvcCBzdHlsZT0ic3RvcC1jb2xvcjojRjlFQzFDIiBvZmZzZXQ9IjAiLz4mI3hhOwkJPHN0b3Agc3R5bGU9InN0b3AtY29sb3I6I0YwNUEyQiIgb2Zmc2V0PSIxIi8+JiN4YTsJPC9saW5lYXJHcmFkaWVudD4mI3hhOwk8cG9seWdvbiBwb2ludHM9Ii03MCwxNjEuOSAtNjAuNSwxNjAgLTkzLjcsLTUuNyAtMTAzLjIsLTMuOCIgY2xhc3M9InN0MTMiLz4mI3hhOwkmI3hhOwkJPGxpbmVhckdyYWRpZW50IGdyYWRpZW50VHJhbnNmb3JtPSJtYXRyaXgoMC45ODA1IC0wLjE5NjQgMC4xOTY0IDAuOTgwNSAtNTY3LjUzMDIgLTUwOS4wOTA2KSIgeTI9IjU1Ny41NzI2IiB4Mj0iMzc0LjE5NTEiIHkxPSI4NzUuMjAzOSIgeDE9IjM3NC4xOTUxIiBncmFkaWVudFVuaXRzPSJ1c2VyU3BhY2VPblVzZSIgaWQ9IlNWR0lEXzE1XyI+JiN4YTsJCTxzdG9wIHN0eWxlPSJzdG9wLWNvbG9yOiNGOUVDMUMiIG9mZnNldD0iMCIvPiYjeGE7CQk8c3RvcCBzdHlsZT0ic3RvcC1jb2xvcjojRjA1QTJCIiBvZmZzZXQ9IjEiLz4mI3hhOwk8L2xpbmVhckdyYWRpZW50PiYjeGE7CTxwb2x5Z29uIHBvaW50cz0iLTU3LDE1OS4zIC00Ny41LDE1Ny40IC04MS45LC0xNC42IC05MS40LC0xMi43IiBjbGFzcz0ic3QxNCIvPiYjeGE7PC9nPiYjeGE7PC9zdmc+;" vertex="1" parent="T0nBWX8SQkE_kbwMObD9-7">
          <mxGeometry x="6.163333333333334" y="3.3333333333333357" width="27.673333333333332" height="33.33333333333333" as="geometry" />
        </mxCell>
        <mxCell id="T0nBWX8SQkE_kbwMObD9-8" value="" style="group" vertex="1" connectable="0" parent="T0nBWX8SQkE_kbwMObD9-22">
          <mxGeometry x="63.299999999999955" width="40" height="40" as="geometry" />
        </mxCell>
        <mxCell id="T0nBWX8SQkE_kbwMObD9-6" value="" style="ellipse;whiteSpace=wrap;html=1;strokeColor=#FF2008;" vertex="1" parent="T0nBWX8SQkE_kbwMObD9-8">
          <mxGeometry width="40" height="40" as="geometry" />
        </mxCell>
        <mxCell id="T0nBWX8SQkE_kbwMObD9-2" value="" style="shape=image;verticalLabelPosition=bottom;labelBackgroundColor=default;verticalAlign=top;aspect=fixed;imageAspect=0;image=data:image/svg+xml,PHN2ZyB4bWxuczp4bGluaz0iaHR0cDovL3d3dy53My5vcmcvMTk5OS94bGluayIgeG1sbnM9Imh0dHA6Ly93d3cudzMub3JnLzIwMDAvc3ZnIiBoZWlnaHQ9IjY0IiB3aWR0aD0iNjQiIHhtbDpzcGFjZT0icHJlc2VydmUiIHZpZXdCb3g9IjAgMCA2NCA2NCIgeT0iMHB4IiB4PSIwcHgiIGlkPSJMYXllcl8xIiB2ZXJzaW9uPSIxLjEiPjxtZXRhZGF0YSBpZD0ibWV0YWRhdGE1NiI+aW1hZ2Uvc3ZnK3htbDwvbWV0YWRhdGE+PGRlZnMgaWQ9ImRlZnM1NCI+JiN4YTsJJiN4YTsmI3hhOwkJPGRlZnMgaWQ9ImRlZnM1Ij4mI3hhOwkJCTxyZWN0IGhlaWdodD0iNTYzNi4yMDAyIiB3aWR0aD0iNDM1NS4yMDAyIiB5PSItMTQxMi4yIiB4PSItODQ5LjcwMDAxIiBpZD0iU1ZHSURfMV8iLz4mI3hhOwkJPC9kZWZzPiYjeGE7CQk8Y2xpcFBhdGggaWQ9IlNWR0lEXzJfIj4mI3hhOwkJCTx1c2UgaGVpZ2h0PSIxMDAlIiB3aWR0aD0iMTAwJSIgeT0iMCIgeD0iMCIgaWQ9InVzZTciIHN0eWxlPSJvdmVyZmxvdzp2aXNpYmxlIiB4bGluazpocmVmPSIjU1ZHSURfMV8iLz4mI3hhOwkJPC9jbGlwUGF0aD4mI3hhOwkJJiN4YTsJCSYjeGE7CSYjeGE7CQkJPGRlZnMgaWQ9ImRlZnMzMyI+JiN4YTsJCQkJPHBhdGggaWQ9IlNWR0lEXzVfIiBkPSJtIDEyMjkuNiwzMjguNiBjIDAsMCAtMC43LDIuOSAtMS42LDcuOCAtOC4zLDIuNCAtMTYuNiw0LjcgLTI0LjksNy40IC0xMS41LDMuNSAtMjIuOCw3LjcgLTM0LjMsMTEuOCAtMTEuMyw0LjQgLTIyLjgsOC44IC0zNCwxMy44IC0yMi42LDkuNyAtNDUsMjAuNiAtNjYuOSwzMi45IC0yMS4yLDExLjkgLTQyLjEsMjUgLTYyLjQsMzkuMiAtMi45LC0xLjQgLTUuMiwtMi40IC01LjIsLTIuNCAtMjA3LjMsLTc5LjIgLTM5MS40LDE2LjEgLTM5MS40LDE2LjEgLTE2LjgsMjIwLjUgODIuOCwzNTkuNSAxMDIuNSwzODQuNyAtNC45LDEzLjYgLTkuNSwyNy40IC0xMy43LDQxLjMgLTE1LjMsNTAgLTI2LjgsMTAxLjMgLTMzLjksMTU0LjMgLTEsNy42IC0xLjksMTUuMyAtMi44LDIzIC0xOTEuNSw5NC42IC0yNDguMywyODguNSAtMjQ4LjMsMjg4LjUgMTU5LjksMTgzLjkgMzQ2LjMsMTk1LjMgMzQ2LjMsMTk1LjMgMC4yLC0wLjEgMC4zLC0wLjMgMC41LC0wLjQgMjMuNyw0Mi4zIDUxLjEsODIuNiA4MiwxMjAuMSAxMi45LDE1LjcgMjYuNSwzMC45IDQwLjYsNDUuNiAtNTguMywxNjYuNyA4LjIsMzA1LjQgOC4yLDMwNS40IDE3OCw2LjcgMjk0LjksLTc3LjkgMzE5LjUsLTk3LjQgMTcuNyw2IDM1LjcsMTEuMyA1My44LDE2IDU0LjcsMTQuMSAxMTAuNywyMi40IDE2Ni43LDI0LjggMTQsMC42IDI4LDAuOSA0MS45LDAuOCBoIDYuOCBsIDQuNCwtMC4xIDguOCwtMC4zIDguNywtMC40IDAuMiwwLjMgYyA4My44LDExOS42IDIzMS4zLDEzNi41IDIzMS4zLDEzNi41IDEwNC45LC0xMTAuNiAxMTAuOSwtMjIwLjMgMTEwLjksLTI0NCB2IDAgYyAwLDAgMCwtMC44IDAsLTEuNiAwLC0yIC0wLjEsLTMuMyAtMC4xLC0zLjMgMCwwIDAsMCAwLDAgLTAuMSwtMS43IC0wLjEsLTMuMyAtMC4zLC01LjEgMjIsLTE1LjQgNDMsLTMyIDYyLjksLTQ5LjggNDIsLTM4IDc4LjcsLTgxLjIgMTA5LjEsLTEyNy45IDIuOSwtNC40IDUuNywtOC44IDguNCwtMTMuMyAxMTguNyw2LjggMjAyLjQsLTczLjUgMjAyLjQsLTczLjUgLTE5LjcsLTEyMy43IC05MC4yLC0xODQgLTEwNC45LC0xOTUuNCB2IDAgYyAwLDAgLTAuNiwtMC41IC0xLjUsLTEuMSAtMC44LC0wLjYgLTEuNCwtMSAtMS40LC0xIDAsMCAwLDAgMCwwIC0wLjcsLTAuNSAtMS42LC0xLjEgLTIuNiwtMS43IDAuNywtNy41IDEuNCwtMTQuOSAxLjgsLTIyLjMgMC45LC0xMy4zIDEuMiwtMjYuNyAxLjMsLTM5LjkgbCAtMC4xLC05LjkgLTAuMSwtNSB2IC0yLjUgYyAwLC0zLjQgLTAuMSwtMi4xIC0wLjEsLTMuNCBsIC0wLjQsLTguMyAtMC42LC0xMS4yIGMgLTAuMiwtMy45IC0wLjUsLTcuMiAtMC44LC0xMC43IC0wLjMsLTMuNCAtMC42LC02LjkgLTEsLTEwLjMgbCAtMS4yLC0xMC4zIC0xLjQsLTEwLjIgYyAtMiwtMTMuNiAtNC42LC0yNy4xIC03LjcsLTQwLjQgLTEyLjQsLTUzLjMgLTMzLjIsLTEwMy45IC02MC43LC0xNDkuNCAtMjcuNSwtNDUuNSAtNjEuNywtODUuOCAtMTAwLjIsLTExOS43IC0zOC41LC0zNCAtODEuNywtNjEuMyAtMTI3LC04MS43IC00NS4zLC0yMC40IC05Mi45LC0zMy41IC0xNDAuMywtMzkuNSAtMjMuNywtMy4xIC00Ny4zLC00LjMgLTcwLjcsLTQgbCAtOC43LDAuMiAtMi4yLDAuMSBjIC0wLjYsMCAtMy4zLDAuMSAtMywwLjEgbCAtMy42LDAuMiAtOC43LDAuNiBjIC0zLjMsMC4yIC02LjcsMC41IC05LjYsMC44IC0xMiwxLjIgLTIzLjksMi44IC0zNS43LDUgLTQ3LDguOCAtOTEuNCwyNS44IC0xMzAuNSw0OS4yIC0zOS4xLDIzLjQgLTczLjEsNTIuNyAtMTAwLjgsODUuOSAtMjcuNiwzMy4xIC00OS4xLDY5LjggLTYzLjksMTA3LjggLTE0LjgsMzggLTIzLjEsNzcuMiAtMjUuNCwxMTUuMyAtMC42LDkuNSAtMC44LDE5IC0wLjYsMjguNCAwLDIuMyAwLjEsNC43IDAuMiw3IGwgMC4zLDcuNiBjIDAuMyw0LjYgMC43LDkuMSAxLjEsMTMuNiAxLjksMTkuMyA1LjQsMzcuOCAxMC42LDU1LjcgMTAuMywzNS43IDI2LjksNjggNDcuMyw5NS40IDIwLjQsMjcuNSA0NC44LDUwLjIgNzAuNyw2Ny45IDI1LjksMTcuNyA1My42LDMwLjQgODEsMzguNSAyNy41LDguMSA1NC44LDExLjYgODAuNSwxMS41IDMuMiwwIDYuNCwtMC4xIDkuNiwtMC4yIDEuNywwIDMuNCwtMC4yIDUuMSwtMC4yIDEuNywtMC4xIDMuNCwtMC4yIDUuMSwtMC4zIDIuNywtMC4zIDUuNSwtMC41IDguMiwtMC44IDAuNiwwIDEuNSwtMC4yIDIuMywtMC4zIGwgMi41LC0wLjMgYyAxLjcsLTAuMiAzLjMsLTAuNSA1LC0wLjcgMy40LC0wLjQgNi4zLC0xLjEgOS4zLC0xLjYgMywtMC42IDYsLTEuMiA5LC0yIDUuOSwtMS4zIDExLjYsLTMuMSAxNy4zLC00LjggMTEuMiwtMy43IDIxLjcsLTguMiAzMS41LC0xMy4yIDkuOCwtNSAxOC44LC0xMC43IDI3LjIsLTE2LjYgMi40LC0xLjcgNC43LC0zLjUgNywtNS4zIDksLTcgMTAuNCwtMjAuMiAzLjIsLTI5IC02LjMsLTcuNyAtMTcuMSwtOS43IC0yNS43LC00LjkgLTIuMSwxLjIgLTQuMywyLjMgLTYuNSwzLjQgLTcuNSwzLjYgLTE1LjMsNyAtMjMuNiw5LjcgLTguMywyLjYgLTE2LjksNC44IC0yNS45LDYuNCAtNC41LDAuNiAtOSwxLjMgLTEzLjYsMS43IC0yLjMsMC4zIC00LjYsMC40IC03LDAuNCAtMi4zLDAuMSAtNC44LDAuMyAtNi45LDAuMiAtMi4yLDAgLTQuNCwtMC4xIC02LjcsLTAuMSAtMi44LC0wLjEgLTUuNiwtMC4zIC04LjQsLTAuNCAwLDAgLTEuNCwwIC0wLjMsLTAuMSBsIC0wLjksLTAuMSAtMS45LC0wLjIgYyAtMS4zLC0wLjEgLTIuNSwtMC4yIC0zLjgsLTAuNCAtMi41LC0wLjMgLTUsLTAuNiAtNy41LC0xIC0yMC4xLC0yLjggLTQwLjUsLTguNyAtNjAuMSwtMTcuNiAtMTkuNywtOC45IC0zOC41LC0yMS4xIC01NS41LC0zNi40IC0xNywtMTUuMiAtMzEuOCwtMzMuNiAtNDMuNCwtNTQuNCAtMTEuNiwtMjAuNyAtMTkuNywtNDMuOCAtMjMuNSwtNjggLTEuOSwtMTIuMSAtMi43LC0yNC42IC0yLjQsLTM2LjggMC4yLC0zLjQgMC4zLC02LjcgMC41LC0xMC4xIDAsMC45IDAuMSwtMC41IDAuMSwtMC42IGwgMC4xLC0xLjIgMC4yLC0yLjUgYyAwLjEsLTEuNyAwLjMsLTMuMyAwLjUsLTUgMC43LC02LjYgMS43LC0xMy4zIDIuOSwtMTkuOCA5LjMsLTUyLjcgMzUuNywtMTA0LjEgNzYuNSwtMTQzLjIgMTAuMiwtOS43IDIxLjIsLTE4LjggMzIuOSwtMjYuOCAxMS43LC04IDI0LjIsLTE1LjIgMzcuMiwtMjEuMiAxMywtNiAyNi42LC0xMC45IDQwLjUsLTE0LjcgMTMuOSwtMy43IDI4LjIsLTYuMiA0Mi43LC03LjUgNy4yLC0wLjYgMTQuNSwtMC45IDIxLjgsLTAuOSAxLjksMCAzLjQsMC4xIDQuOSwwLjEgbCA1LjksMC4yIDMuNywwLjEgYyAxLjUsMCAwLDAgMC43LDAuMSBsIDEuNSwwLjEgNS45LDAuNCBjIDE1LjcsMS4zIDMxLjQsMy41IDQ2LjgsNyAzMC45LDYuOSA2MC45LDE4LjIgODguOSwzMy43IDU2LDMxIDEwMy43LDc5LjUgMTMzLDEzOCAxNC44LDI5LjEgMjUsNjAuNSAzMC4yLDkyLjkgMS4yLDguMSAyLjIsMTYuMyAyLjksMjQuNSBsIDAuNSw2LjIgMC4zLDYuMiBjIDAuMSwyLjEgMC4xLDQuMSAwLjIsNi4yIDAsMiAwLjEsNC4zIDAuMSw1LjggdiA1LjMgbCAtMC4xLDYgYyAtMC4yLDQgLTAuNSwxMC41IC0wLjcsMTQuNSAtMC43LDguOSAtMS40LDE3LjkgLTIuNiwyNi44IC0xLjEsOC44IC0yLjYsMTcuNiAtNC4yLDI2LjQgLTEuOCw4LjcgLTMuNiwxNy40IC01LjksMjYgLTQuMywxNy4zIC05LjksMzQuMiAtMTYuNCw1MC44IC0xMy4xLDMzLjIgLTMwLjYsNjQuNyAtNTEuNyw5My44IC00Mi4zLDU4LjEgLTEwMCwxMDUuNiAtMTY1LjYsMTM1LjQgLTMyLjgsMTQuOCAtNjcuNCwyNS43IC0xMDMsMzEuNiAtMTcuOCwzIC0zNS44LDQuOCAtNTMuOCw1LjQgbCAtMy4zLDAuMSBoIC0yLjkgbCAtNS44LDAuMSBoIC04LjkgLTQuNCBjIDIuNSwwIC0wLjQsMCAtMC4zLC0wLjEgbCAtMS44LC0wLjEgYyAtOS43LC0wLjIgLTE5LjMsLTAuNyAtMjguOSwtMS40IC0zOC41LC0yLjkgLTc2LjYsLTkuNyAtMTEzLjUsLTIwLjUgLTM2LjksLTEwLjcgLTcyLjcsLTI1IC0xMDYuNiwtNDMgLTY3LjcsLTM2LjIgLTEyOC4yLC04NS44IC0xNzUuNiwtMTQ1LjYgLTIzLjgsLTI5LjggLTQ0LjYsLTYxLjggLTYxLjgsLTk1LjUgLTE3LjIsLTMzLjcgLTMwLjcsLTY5IC00MC43LC0xMDUuMSAtOS45LC0zNi4xIC0xNi4xLC03My4xIC0xOC41LC0xMTAuMyBsIC0wLjQsLTcgLTAuMSwtMS43IHYgLTEuNSBsIC0wLjEsLTMuMSAtMC4yLC02LjEgLTAuMSwtMS41IHYgLTIuMSAtNC4zIGwgLTAuMSwtOC43IHYgLTEuNyBjIDAsMC4zIDAsMC4zIDAsLTAuNiB2IC0zLjQgYyAwLC00LjUgMC4yLC05LjEgMC4zLC0xMy42IDAuNywtMTguNCAyLjIsLTM3LjMgNC42LC01Ni4yIDIuNCwtMTguOSA1LjUsLTM3LjkgOS40LC01Ni44IDMuOSwtMTguOCA4LjUsLTM3LjUgMTMuNywtNTUuOCAxMC41LC0zNi43IDIzLjYsLTcyLjMgMzkuMSwtMTA1LjkgMzEuMSwtNjcuMyA3MS45LC0xMjYuNiAxMjAuOSwtMTc0LjQgMTIuMiwtMTIgMjQuOSwtMjMuMyAzOC4xLC0zMy45IDEzLjIsLTEwLjYgMjYuOSwtMjAuNCA0MSwtMjkuNiAxNCwtOS4zIDI4LjUsLTE3LjcgNDMuNCwtMjUuNSA3LjQsLTQgMTUsLTcuNSAyMi42LC0xMS4yIDMuOCwtMS43IDcuNywtMy40IDExLjUsLTUuMSAzLjgsLTEuNyA3LjcsLTMuNCAxMS42LC00LjkgMTUuNSwtNi42IDMxLjUsLTEyLjEgNDcuNSwtMTcuMyA0LjEsLTEuMiA4LjEsLTIuNSAxMi4xLC0zLjcgNCwtMS4zIDguMiwtMi4yIDEyLjIsLTMuNCA4LjEsLTIuMyAxNi40LC00LjIgMjQuNiwtNi4zIDQuMSwtMS4xIDguMywtMS44IDEyLjQsLTIuNyA0LjIsLTAuOSA4LjMsLTEuOCAxMi41LC0yLjYgNC4yLC0wLjggOC40LC0xLjUgMTIuNSwtMi4zIGwgNi4zLC0xLjEgNi4zLC0xIGMgNC4yLC0wLjYgOC40LC0xLjMgMTIuNiwtMS45IDQuNywtMC44IDkuNSwtMS4yIDE0LjIsLTEuOSAzLjksLTAuNSAxMC4yLC0xLjIgMTQuMSwtMS43IDMsLTAuMyA1LjksLTAuNiA4LjksLTAuOSBsIDUuOSwtMC42IDMsLTAuMyAzLjUsLTAuMiBjIDQuOCwtMC4zIDkuNSwtMC42IDE0LjMsLTAuOSBsIDcuMSwtMC41IGMgMCwwIDIuNiwtMC4xIDAuMywtMC4xIGwgMS41LC0wLjEgMywtMC4xIGMgNC4xLC0wLjIgOC4xLC0wLjQgMTIuMiwtMC42IDE2LjIsLTAuNSAzMi4zLC0wLjUgNDguMiwwIDMxLjksMS4zIDYzLjIsNC44IDkzLjYsMTAuNCA2MC45LDExLjMgMTE4LjIsMzAuOSAxNzAsNTYuNSA1MS45LDI1LjQgOTguNCw1Ni42IDEzOC44LDkwLjUgMi41LDIuMSA1LDQuMyA3LjUsNi40IDIuNSwyLjIgNC45LDQuMyA3LjMsNi41IDQuOSw0LjMgOS42LDguOCAxNC4zLDEzLjEgNC43LDQuNCA5LjIsOC45IDEzLjgsMTMuMyA0LjQsNC41IDguOSw4LjkgMTMuMiwxMy41IDE3LjEsMTguMSAzMywzNi41IDQ3LjMsNTUgMjguNywzNi45IDUxLjYsNzQuMSA2OS45LDEwOS4zIDEuMiwyLjIgMi4zLDQuNCAzLjQsNi42IDEuMSwyLjIgMi4yLDQuNCAzLjIsNi42IDIuMSw0LjMgNC4zLDguNiA2LjIsMTIuOSAyLDQuMyA0LDguNSA1LjksMTIuNyAxLjgsNC4yIDMuNiw4LjQgNS40LDEyLjQgNi44LDE2LjUgMTMsMzIuMSAxOC4xLDQ3IDguNCwyMy45IDE0LjUsNDUuNSAxOS4zLDY0LjIgMS45LDcuNSA5LDEyLjUgMTYuNywxMS44IDgsLTAuNyAxNC4xLC03LjMgMTQuMywtMTUuMyAwLjQsLTIwLjEgLTAuMSwtNDMuOCAtMi40LC03MC44IC0zLC0zMy40IC04LjcsLTcyLjEgLTIwLC0xMTQuNiAtMTEuMSwtNDIuNSAtMjcuNiwtODkgLTUxLjYsLTEzNy4zIC0yNC4xLC00OC4yIC01NS41LC05OC40IC05Ni4zLC0xNDYuOSAtMTUuOSwtMTkgLTMzLjMsLTM3LjggLTUyLjEsLTU2LjEgMjgsLTExMS40IC0zNC4xLC0yMDggLTM0LjEsLTIwOCAtMTA3LjIsLTYuNyAtMTc1LjQsMzMuMyAtMjAwLjcsNTEuNiAtNC4yLC0xLjggLTguNSwtMy42IC0xMi44LC01LjQgLTE4LjMsLTcuNCAtMzcsLTE0LjMgLTU2LjMsLTIwLjQgLTE5LjMsLTYuMSAtMzksLTExLjcgLTU5LjEsLTE2LjQgLTIwLjIsLTQuNyAtNDAuNywtOC43IC02MS42LC0xMS45IC0zLjcsLTAuNSAtNy4zLC0xIC0xMSwtMS42IC00Ni42LC0xNDkuNCAtMTgwLjksLTIxMS45IC0xODAuOSwtMjExLjkgLTE0OS44LDk0LjUgLTE3OC4zLDIyNy40IC0xNzguMywyMjcuNCIvPiYjeGE7CQkJPC9kZWZzPiYjeGE7CQkJPGNsaXBQYXRoIGlkPSJTVkdJRF82XyI+JiN4YTsJCQkJPHVzZSB4bGluazpocmVmPSIjU1ZHSURfNV8iIHN0eWxlPSJvdmVyZmxvdzp2aXNpYmxlIiBpZD0idXNlMzUiIHg9IjAiIHk9IjAiIHdpZHRoPSIxMDAlIiBoZWlnaHQ9IjEwMCUiLz4mI3hhOwkJCTwvY2xpcFBhdGg+JiN4YTsJCQkmI3hhOwkJCQk8bGluZWFyR3JhZGllbnQgaWQ9IlNWR0lEXzdfIiBncmFkaWVudFVuaXRzPSJ1c2VyU3BhY2VPblVzZSIgeDE9Ii04MTkuNzY1MDEiIHkxPSI4MjAxLjcxIiB4Mj0iLTgxMi42NDg2OCIgeTI9IjgyMDEuNzEiIGdyYWRpZW50VHJhbnNmb3JtPSJtYXRyaXgoMCwtMjU1Ljc3NDIsLTI1NS43NzQyLDAsMjA5OTExNS41LC0yMDcxMzMuNTUpIj4mI3hhOwkJCQk8c3RvcCBvZmZzZXQ9IjAiIHN0eWxlPSJzdG9wLWNvbG9yOiNGRkYyMDAiIGlkPSJzdG9wMzgiLz4mI3hhOwkJCQk8c3RvcCBvZmZzZXQ9IjEiIHN0eWxlPSJzdG9wLWNvbG9yOiNGMTVBMjkiIGlkPSJzdG9wNDAiLz4mI3hhOwkJCTwvbGluZWFyR3JhZGllbnQ+JiN4YTsJCQkmI3hhOwkJJiN4YTsJCQk8ZGVmcyBpZD0iZGVmczExIj4mI3hhOwkJCQk8cmVjdCBpZD0iU1ZHSURfM18iIHg9Ii04NDkuNzAwMDEiIHk9Ii0xNDEyLjIiIHdpZHRoPSI0MzU1LjIwMDIiIGhlaWdodD0iNTYzNi4yMDAyIi8+JiN4YTsJCQk8L2RlZnM+JiN4YTsJCQk8Y2xpcFBhdGggaWQ9IlNWR0lEXzRfIj4mI3hhOwkJCQk8dXNlIHhsaW5rOmhyZWY9IiNTVkdJRF8zXyIgc3R5bGU9Im92ZXJmbG93OnZpc2libGUiIGlkPSJ1c2UxMyIgeD0iMCIgeT0iMCIgd2lkdGg9IjEwMCUiIGhlaWdodD0iMTAwJSIvPiYjeGE7CQkJPC9jbGlwUGF0aD4mI3hhOwkJCSYjeGE7CQkJJiN4YTsJCQkmI3hhOwkJCSYjeGE7CQkJJiN4YTsJCQkmI3hhOwkJCSYjeGE7CQk8L2RlZnM+JiN4YTs8c3R5bGUgaWQ9InN0eWxlMiIgdHlwZT0idGV4dC9jc3MiPiYjeGE7CS5zdDB7ZmlsbDojQzU5QTZFO30mI3hhOwkuc3Qxe2ZpbGw6IzNDQjQ0Qjt9JiN4YTsJLnN0MntmaWxsOiM2NzMwOEY7fSYjeGE7CS5zdDN7ZmlsbDojRDFEMUQxO30mI3hhOwkuc3Q0e2ZpbGw6I0VGNUIyODt9JiN4YTsJLnN0NXtzdHJva2U6IzAwMDAwMDtzdHJva2Utd2lkdGg6MTY7c3Ryb2tlLW1pdGVybGltaXQ6MTA7fSYjeGE7CS5zdDZ7ZmlsbDp1cmwoI1RyaWFuZ2xlLTNfMV8pO30mI3hhOwkuc3Q3e2ZpbGw6IzMzMzMzMzt9JiN4YTsJLnN0OHtmaWxsOiNDRjIxMjk7fSYjeGE7CS5zdDl7ZmlsbDojQ0MzODMyO30mI3hhOwkuc3QxMHtmaWxsOiNCQTQ0M0Q7fSYjeGE7CS5zdDExe2ZpbGw6I0JBQzU1Njt9JiN4YTsJLnN0MTJ7ZmlsbDojRjhERjRCO30mI3hhOwkuc3QxM3tmaWxsOiNGNUNGNDc7fSYjeGE7CS5zdDE0e2ZpbGw6I0E5Qjc1RDt9JiN4YTsJLnN0MTV7ZmlsbDojRERCRTVCO30mI3hhOwkuc3QxNntmaWxsOiM2RkJFQ0I7fSYjeGE7CS5zdDE3e2ZpbGw6Izc5QzBCRjt9JiN4YTsJLnN0MTh7ZmlsbDojNzdDM0QyO30mI3hhOwkuc3QxOXtmaWxsOiM1Q0I4QkI7fSYjeGE7CS5zdDIwe2ZpbGw6IzUyOUZCNTt9JiN4YTsJLnN0MjF7ZmlsbDojQkEzRDM2O30mI3hhOwkuc3QyMntmaWxsOiM5RDM2MzQ7fSYjeGE7CS5zdDIze2ZpbGw6I0QzM0UzNTt9JiN4YTsJLnN0MjR7ZmlsbDojODY5QjYzO30mI3hhOwkuc3QyNXtmaWxsOiNCRUM1NEY7fSYjeGE7CS5zdDI2e2ZpbGw6IzlFQUQ1OTt9JiN4YTsJLnN0Mjd7ZmlsbDpub25lO30mI3hhOwkuc3QyOHtmaWxsOiM0M0FFMkE7fSYjeGE7CS5zdDI5e2ZpbGw6IzAwOURERDt9JiN4YTsJLnN0MzB7ZmlsbDojMDBBMjk3O30mI3hhOwkuc3QzMXtmaWxsOiMwMDcyQ0M7fSYjeGE7CS5zdDMye2ZpbGw6IzgyQkIwMDt9JiN4YTsJLnN0MzN7ZmlsbDojMTAwNjlEO30mI3hhOwkuc3QzNHtmaWxsOiMzMzNGNDg7fSYjeGE7CS5zdDM1e2NsaXAtcGF0aDp1cmwoI1NWR0lEXzJfKTt9JiN4YTsJLnN0MzZ7Y2xpcC1wYXRoOnVybCgjU1ZHSURfNF8pO2ZpbGw6IzQxNDA0Mjt9JiN4YTsJLnN0Mzd7Y2xpcC1wYXRoOnVybCgjU1ZHSURfNl8pO2ZpbGw6dXJsKCNTVkdJRF83Xyk7fSYjeGE7PC9zdHlsZT4mI3hhOzxnIHRyYW5zZm9ybT0ibWF0cml4KDAuODE1OTEyNDQsMCwwLDAuODE1OTEyNDQsLTU3LjgzMjM1NywxMjkuNzE4NTMpIiBpZD0iZzkzNyI+PHJlY3Qgc3R5bGU9ImZpbGw6dXJsKCNTVkdJRF83XykiIGlkPSJyZWN0NDMiIGNsaXAtcGF0aD0idXJsKCNTVkdJRF82XykiIGhlaWdodD0iMTk5Mi4zIiB3aWR0aD0iMTgzNC40IiBjbGFzcz0ic3QzNyIgeT0iMTAwLjgiIHg9IjQxMi43MDAwMSIgdHJhbnNmb3JtPSJtYXRyaXgoMC4wMzkzNzkzOCwwLDAsMC4wMzkzNzkzOCw1Ny43MzMyOTksLTE2Mi45NzEwNCkiLz48L2c+JiN4YTs8L3N2Zz4=;" vertex="1" parent="T0nBWX8SQkE_kbwMObD9-8">
          <mxGeometry x="4.5" y="4.5" width="31" height="31" as="geometry" />
        </mxCell>
        <mxCell id="T0nBWX8SQkE_kbwMObD9-9" value="" style="group" vertex="1" connectable="0" parent="T0nBWX8SQkE_kbwMObD9-22">
          <mxGeometry x="8.779999999999973" width="40" height="40" as="geometry" />
        </mxCell>
        <mxCell id="T0nBWX8SQkE_kbwMObD9-4" value="" style="ellipse;whiteSpace=wrap;html=1;strokeColor=#FF2008;" vertex="1" parent="T0nBWX8SQkE_kbwMObD9-9">
          <mxGeometry width="40" height="40" as="geometry" />
        </mxCell>
        <mxCell id="T0nBWX8SQkE_kbwMObD9-1" value="" style="shape=image;verticalLabelPosition=bottom;labelBackgroundColor=default;verticalAlign=top;aspect=fixed;imageAspect=0;image=data:image/svg+xml,PHN2ZyB4bWxuczp4bGluaz0iaHR0cDovL3d3dy53My5vcmcvMTk5OS94bGluayIgeG1sbnM9Imh0dHA6Ly93d3cudzMub3JnLzIwMDAvc3ZnIiBwcmVzZXJ2ZUFzcGVjdFJhdGlvPSJ4TWlkWU1pZCIgdmVyc2lvbj0iMS4xIiB2aWV3Qm94PSItMC41IDAgMjU3IDI1NyIgaGVpZ2h0PSI4MDBweCIgd2lkdGg9IjgwMHB4Ij4mI3hhOyAgICA8Zz4mI3hhOyAgICAgICAgPHBhdGggZmlsbD0iI0RBNEUzMSIgZD0iTTEyOC4wMDExMjksMC42NjcgQzU3LjMxMTAzOTIsMC42NjcgMCw1Ny45NzEyNjI3IDAsMTI4LjY2MzYxMiBDMCwxOTkuMzUzNzAyIDU3LjMxMTAzOTIsMjU2LjY2MjQ4MiAxMjguMDAxMTI5LDI1Ni42NjI0ODIgQzE5OC42OTEyMiwyNTYuNjYyNDgyIDI1NiwxOTkuMzUzNzAyIDI1NiwxMjguNjYzNjEyIEMyNTYsNTcuOTcxMjYyNyAxOTguNjg4OTYxLDAuNjY3IDEyOC4wMDExMjksMC42NjcgTDEyOC4wMDExMjksMC42NjcgWiBNMTI4LjAwMTEyOSwyNDAuMjI3MjM0IEMxMDcuODg4NTA2LDI0MC4yMjcyMzQgOTEuNTgyMDEwNSwyMjYuNzkxNzEyIDkxLjU4MjAxMDUsMjEwLjIyMzE5MyBMMTY0LjQyMDI0OCwyMTAuMjIzMTkzIEMxNjQuNDIwMjQ4LDIyNi43ODk0NTMgMTQ4LjExMzc1MywyNDAuMjI3MjM0IDEyOC4wMDExMjksMjQwLjIyNzIzNCBMMTI4LjAwMTEyOSwyNDAuMjI3MjM0IFogTTE4OC4xNTM3NzcsMjAwLjI4NjU5OSBMNjcuODQxNzA1NCwyMDAuMjg2NTk5IEw2Ny44NDE3MDU0LDE3OC40NzA4MTcgTDE4OC4xNTYwMzYsMTc4LjQ3MDgxNyBMMTg4LjE1NjAzNiwyMDAuMjg2NTk5IEwxODguMTUzNzc3LDIwMC4yODY1OTkgWiBNMTg3LjcyMjM0LDE2Ny4yNDIxNzIgTDY4LjE4NTA0NzYsMTY3LjI0MjE3MiBDNjcuNzg3NDkzNSwxNjYuNzgzNjMgNjcuMzgwOTA0MSwxNjYuMzMxODY0IDY2Ljk5NjkwMjksMTY1Ljg2NjU0NSBDNTQuNjgxNzYwOCwxNTAuOTEzMDg5IDUxLjc4MTQyMjksMTQzLjEwNjU3MiA0OC45NjQ2NjE3LDEzNS4xNTA5NzIgQzQ4LjkxNzIyNjIsMTM0Ljg4ODk0OCA2My44OTc3ODc5LDEzOC4yMTE2ODcgNzQuNTIxMDY2MiwxNDAuNjAxNTI5IEM3NC41MjEwNjYyLDE0MC42MDE1MjkgNzkuOTg3NDM1MywxNDEuODY2NDc0IDg3Ljk3OTE3NjQsMTQzLjMyMzQyIEM4MC4zMDU5MzAzLDEzNC4zMjg3NTggNzUuNzQ5ODY5OSwxMjIuODk0NTU5IDc1Ljc0OTg2OTksMTExLjIwNzM3MiBDNzUuNzQ5ODY5OSw4NS41NDkzMjAyIDk1LjQyODc5ODMsNjMuMTI4MTcxOSA4OC4zMjkyOTUxLDQ1LjAwNTU3NzUgQzk1LjIzOTA1NjYsNDUuNTY4MDI2MiAxMDIuNjI5OTQ5LDU5LjU4ODU4NTEgMTAzLjEyOTE1LDgxLjUxMDUzMTkgQzExMC40NzQ4NjYsNzEuMzU5MzQ5MSAxMTMuNTQ5MTM0LDUyLjgyMTEyOTkgMTEzLjU0OTEzNCw0MS40NTQ2OTY0IEMxMTMuNTQ5MTM0LDI5LjY4NjE5MTIgMTIxLjMwMzY5OCwxNi4wMTU3NTEgMTI5LjA2MDUyMSwxNS41NDgxNzMyIEMxMjIuMTQ2MjQyLDI2Ljk0Mzk3MTQgMTMwLjg1MTc3MywzNi43MTM0MTE5IDEzOC41OTA1MjUsNjAuOTQ4NDAwOCBDMTQxLjQ5MzEyMiw3MC4wNTE0ODY0IDE0MS4xMjI2NzQsODUuMzcwODcyNyAxNDMuMzYzNDMzLDk1LjA4NjEwMTIgQzE0NC4xMDY1ODksNzQuOTA3OTcxMyAxNDcuNTc2MTUyLDQ1LjQ2NjM3ODggMTYwLjM3Njk0MiwzNS4zMDE2NDMgQzE1NC43Mjk4NjcsNDguMTAyNDMzNiAxNjEuMjEyNzA5LDY0LjExOTc5ODQgMTY1LjY0Njc5Myw3MS44MjAxNTA1IEMxNzIuODAwNTA4LDg0LjI0MzcxNjQgMTc3LjEzNzQ2Miw5My42NTYyNjE3IDE3Ny4xMzc0NjIsMTExLjQ1ODEwMiBDMTc3LjEzNzQ2MiwxMjMuMzkzNzYxIDE3Mi43MzA0ODUsMTM0LjYzMTQ0MSAxNjUuMjk2Njc0LDE0My40MTYwMzIgQzE3My43NDkyMTcsMTQxLjgzMDMzMyAxNzkuNTg2MDM0LDE0MC40MDA0OTMgMTc5LjU4NjAzNCwxNDAuNDAwNDkzIEwyMDcuMDM1MzM4LDEzNS4wNDQ4MDcgQzIwNy4wMzc1OTcsMTM1LjA0MjU0OCAyMDMuMDQ4NTAzLDE1MS40NDYxNzMgMTg3LjcyMjM0LDE2Ny4yNDIxNzIgTDE4Ny43MjIzNCwxNjcuMjQyMTcyIFoiPiYjeGE7JiN4YTs8L3BhdGg+JiN4YTsgICAgPC9nPiYjeGE7PC9zdmc+;" vertex="1" parent="T0nBWX8SQkE_kbwMObD9-9">
          <mxGeometry x="3.333333333333333" y="3.333333333333333" width="33.33333333333333" height="33.33333333333333" as="geometry" />
        </mxCell>
        <mxCell id="T0nBWX8SQkE_kbwMObD9-23" value=".10" style="text;strokeColor=none;align=center;fillColor=none;html=1;verticalAlign=middle;whiteSpace=wrap;rounded=0;" vertex="1" parent="1">
          <mxGeometry x="474.6" y="360.41" width="30" height="30" as="geometry" />
        </mxCell>
        <mxCell id="T0nBWX8SQkE_kbwMObD9-24" value=".11" style="text;strokeColor=none;align=center;fillColor=none;html=1;verticalAlign=middle;whiteSpace=wrap;rounded=0;" vertex="1" parent="1">
          <mxGeometry x="575" y="440.41" width="35.4" height="30" as="geometry" />
        </mxCell>
        <mxCell id="T0nBWX8SQkE_kbwMObD9-25" value=".12" style="text;strokeColor=none;align=center;fillColor=none;html=1;verticalAlign=middle;whiteSpace=wrap;rounded=0;" vertex="1" parent="1">
          <mxGeometry x="701.24" y="440" width="35.4" height="30" as="geometry" />
        </mxCell>
        <mxCell id="T0nBWX8SQkE_kbwMObD9-28" value=".13" style="text;strokeColor=none;align=center;fillColor=none;html=1;verticalAlign=middle;whiteSpace=wrap;rounded=0;" vertex="1" parent="1">
          <mxGeometry x="834.7" y="440.41" width="35.4" height="30" as="geometry" />
        </mxCell>
        <mxCell id="T0nBWX8SQkE_kbwMObD9-31" value=".14" style="text;strokeColor=none;align=center;fillColor=none;html=1;verticalAlign=middle;whiteSpace=wrap;rounded=0;" vertex="1" parent="1">
          <mxGeometry x="1000" y="440.41" width="35.4" height="30" as="geometry" />
        </mxCell>
        <mxCell id="T0nBWX8SQkE_kbwMObD9-32" value=".10" style="text;strokeColor=none;align=center;fillColor=none;html=1;verticalAlign=middle;whiteSpace=wrap;rounded=0;" vertex="1" parent="1">
          <mxGeometry x="368" y="360.41" width="30" height="30" as="geometry" />
        </mxCell>
      </root>
    </mxGraphModel>
  </diagram>
</mxfile>
